<?xml version="1.0" encoding="utf-8"?>
<!-- Generator: Adobe Illustrator 26.3.1, SVG Export Plug-In . SVG Version: 6.00 Build 0)  -->
<svg version="1.1" id="Layer_1" xmlns="http://www.w3.org/2000/svg" xmlns:xlink="http://www.w3.org/1999/xlink" x="0px" y="0px"
	 width="300px" height="300px" viewBox="0 0 300 300" style="enable-background:new 0 0 300 300;" xml:space="preserve">
<style type="text/css">
	.st0{fill:#ED1C24;}
	.st1{fill:#F7BABA;}
</style>
<g>
	<g>
		<path class="st0" d="M283.4,47.6c-8.2-9.3-21.1-10.7-33-3.4c-3.4,2.1-9.3,1.8-12.5-0.5c-11.2-8.1-24.2-7.7-33.1,1
			c-1.8,1.7-3.3,3.7-4.6,5.9c-0.1,0.1-0.1,0.1-0.2,0.2c-6.5,6.4-10.2,15.6-10.4,25.9c-0.3,11.6,3.8,23.8,11.9,35.4
			c1.3,1.9,6.2,8.6,13.4,14.6c7.3,6.1,14.4,9.3,21.1,9.5c14.7,0.5,29.7-13.3,36.2-21.5c8.1-10.2,13.2-20.6,15.1-30.3
			c1.6-4.3,2.6-8.6,3-12.8C291.2,62.2,288.7,53.6,283.4,47.6z"/>
		<g>
			<path class="st1" d="M270.1,110.2c-2.2,2.1-4.9,4.5-7.9,6.7c-7.5,5.4-14.5,8-21,7.8c0,0,0,0,0,0c-6.4-0.2-13.3-3.4-20.3-9.3
				c-6.9-5.8-11.6-12.4-12.9-14.2c-7.7-11.1-11.8-22.5-11.9-33.1c0-1,0-2.1,0.1-3.1c-5.2,14.2,0.2,31.8,9.1,44.5
				c1.2,1.8,5.8,8.1,12.6,13.7c6.4,5.4,12.8,8.3,18.4,8.5c5.6,0.2,12.2-2.2,19-7.1c7.3-5.2,12.2-11.1,13.5-12.7
				C269.2,111.3,269.7,110.8,270.1,110.2z"/>
			<path class="st1" d="M235.3,47.3c-4.3-3.1-8.9-4.8-13.4-5c-0.6,0-1.1,0-1.7,0c-4.6,0.2-8.9,2.1-12.3,5.5
				c-4.9,4.8-7.5,12-7.4,20.2c0.1,9.7,3.9,20.3,11.1,30.6c1.2,1.8,5.6,7.9,12.1,13.3c6.2,5.2,12.3,8,17.6,8.2
				c5.3,0.2,11.6-2.2,18.2-6.9c6.9-5,11.7-10.7,13-12.4c7.9-9.8,12.5-20.1,13.3-29.7c0.7-8.2-1.4-15.6-5.9-20.7
				c-3.2-3.6-7.3-5.8-11.9-6.4c-5-0.6-10.3,0.7-15.4,3.8C247.8,51,240,50.7,235.3,47.3z"/>
		</g>
		<g>
			<path class="st0" d="M232.2,76.3c-0.7,0.5-1.9,1.5-1.9,1.5s-0.8,0.5-1.8-0.6c-0.8-1-3-3.5-4.2-5.9c0,1.2-0.1,3.4-0.1,4.5
				c0,0.4,0.2,1.6-1,1.7c-1.2,0.1-3.5,0.2-3.5-1.3c0,0-0.1-11.6,0.1-15.7c0-0.9-0.3-1.9,1.5-1.9c0.3,0,1.1,0,1.8,0
				c0.6,0,1.1,0.5,1.1,1.1l0,3.1c0,0,0,0,0,0l0,2.3l2.4-4.3c0,0,0.6-1.4,1.4-1.7c0.6-0.2,1.4-0.2,2.3-0.2c1.6,0.1,2.1,0.9,1.4,2.2
				c-0.5,0.9-2.9,4.8-4,7c0.5,0.8,1.8,3.2,2.5,4.1c0.8,1.1,1.9,2.5,2.1,2.7C232.8,75.1,232.9,75.8,232.2,76.3z"/>
			<path class="st0" d="M239.4,77.1c-1.4,0-2.8,0-2.8,0s-1,0.2-1-1.7c-0.1-1.9,0-12.3-0.1-15.6c0-0.4-0.2-1.5,1.1-1.4l2.9,0
				c0,0,1.1-0.1,1.1,1c0,1.1,0,16.4,0,16.4S240.8,77,239.4,77.1z"/>
			<path class="st0" d="M253.9,73.7c-0.9,2.7-4.2,3.9-6.9,3.2c-3.5-0.9-2.7-2.2-2.6-2.8c0.1-0.6,0.6-1.6,1.3-2.4
				c0.4-0.5,1.1-0.1,1.1-0.1s2.1,0.9,2.6,0.3c0.7-0.9-0.9-1.8-2.6-3.1c-1.4-1-2.5-2.2-2.8-5c-0.3-2.5,1.1-4.5,3.1-5.6
				s4.4-0.4,5.5,0.2c1.1,0.6,1.1,1.2,0.8,1.8c-0.3,0.6-0.8,1.5-1.1,2c-0.3,0.4-0.6,0.8-1.4,0.3c-0.7-0.4-2.3-0.9-2.4,0.5
				c-0.1,1.3,1.5,2.1,3.4,3.6C254,68.4,254.7,71,253.9,73.7z"/>
			<path class="st0" d="M266.7,73.7c-0.9,2.7-4.2,3.9-6.9,3.2c-3.5-0.9-2.7-2.2-2.6-2.8c0.1-0.6,0.6-1.6,1.3-2.4
				c0.4-0.5,1.1-0.1,1.1-0.1s2.1,0.9,2.6,0.3c0.7-0.9-0.9-1.8-2.6-3.1c-1.4-1-2.5-2.2-2.8-5c-0.3-2.5,1.1-4.5,3.1-5.6
				c2-1.1,4.4-0.4,5.5,0.2c1.1,0.6,1.1,1.2,0.8,1.8c-0.3,0.6-0.8,1.5-1.1,2c-0.3,0.4-0.6,0.8-1.4,0.3c-0.7-0.4-2.3-0.9-2.4,0.5
				c-0.1,1.3,1.5,2.1,3.4,3.6C266.8,68.4,267.5,71,266.7,73.7z"/>
			<path class="st0" d="M244.3,102.9c0,0-1.3,0-2.5,0c-1.3,0-1.1-0.9-1.1-1.3c-0.2-1.4-0.3-4.2-0.5-6.3l-1.8,6.6
				c-0.2,0.6-0.7,1-1.3,1h-1.8c-0.7,0-1.2-0.4-1.4-1l-1.9-6.4c-0.1,2-0.3,4.8-0.4,6.2c0,0.4,0.2,1.3-1.1,1.3c-1.3,0-2.5,0-2.5,0
				s-1.1,0.2-1-1.7c0.2-2.1,0.4-11.8,0.8-15.4c0-0.4,0.1-1.9,1.1-1.9l2.8,0c0,0,0.7-0.1,0.9,0.6l0,0l0,0c0,0,0,0,0,0l3.6,11
				l3.1-10.4c0.5-1.5,1.2-1.3,1.2-1.3l3,0c0.8,0,1,1.1,1,1.4c0.4,3.5,0.7,13.9,0.8,15.9C245.3,103.1,244.3,102.9,244.3,102.9z"/>
			<path class="st0" d="M259.2,101.8c-0.1,0.6,0,1.2-2,1.2c-2,0-7-0.1-7-0.1s-1.3,0.1-1.2-1.4c0.1-1.6,0-15.7,0-15.7
				s-0.3-1.4,1.1-1.6c1.4-0.2,8.1-0.1,8.1-0.1s1,0,1,1.2c0,1.2,0,2.5,0,2.5s0.1,1-1.7,1.1c-1.8,0.1-4,0.1-4,0.1v2.4l3.8,0.1
				c0,0,1.2-0.2,1.3,1.3c0.1,1.5-0.1,2.3-0.1,2.3s-0.1,0.9-1.6,0.9c-1.6,0-3.2,0-3.2,0v2.5l4.1,0.1c0,0,1.6-0.2,1.6,1.5
				C259.2,101.1,259.3,101.2,259.2,101.8z"/>
		</g>
	</g>
	<g>
		<path class="st0" d="M191.1,111.5c-8.2-9.3-21.1-10.7-33-3.4c-3.4,2.1-9.3,1.8-12.5-0.5c-11.2-8.1-24.2-7.7-33.1,1
			c-1.8,1.7-3.3,3.7-4.6,5.9c-0.1,0.1-0.1,0.1-0.2,0.2c-6.5,6.4-10.2,15.6-10.4,25.9c-0.3,11.6,3.8,23.8,11.9,35.4
			c1.3,1.9,6.2,8.6,13.4,14.6c7.3,6.1,14.4,9.3,21.1,9.5c14.7,0.5,29.7-13.3,36.2-21.5c8.1-10.2,13.2-20.6,15.1-30.3
			c1.6-4.3,2.6-8.6,3-12.8C198.9,126,196.4,117.5,191.1,111.5z"/>
		<g>
			<path class="st1" d="M177.8,174.1c-2.2,2.1-4.9,4.5-7.9,6.7c-7.5,5.4-14.5,8-21,7.8c0,0,0,0,0,0c-6.4-0.2-13.3-3.4-20.3-9.3
				c-6.9-5.8-11.6-12.4-12.9-14.2c-7.7-11.1-11.8-22.5-11.9-33.1c0-1,0-2.1,0.1-3.1c-5.2,14.2,0.2,31.8,9.1,44.5
				c1.2,1.8,5.8,8.1,12.6,13.7c6.4,5.4,12.8,8.3,18.4,8.5c5.6,0.2,12.2-2.2,19-7.1c7.3-5.2,12.2-11.1,13.5-12.7
				C176.9,175.2,177.4,174.6,177.8,174.1z"/>
			<path class="st1" d="M143,111.2c-4.3-3.1-8.9-4.8-13.4-5c-0.6,0-1.1,0-1.7,0c-4.6,0.2-8.9,2.1-12.3,5.5c-4.9,4.8-7.5,12-7.4,20.2
				c0.1,9.7,3.9,20.3,11.1,30.6c1.2,1.8,5.6,7.9,12.1,13.3c6.2,5.2,12.3,8,17.6,8.2c5.3,0.2,11.6-2.2,18.2-6.9
				c6.9-5,11.7-10.7,13-12.4c7.9-9.8,12.5-20.1,13.3-29.7c0.7-8.2-1.4-15.6-5.9-20.7c-3.2-3.6-7.3-5.8-11.9-6.4
				c-5-0.6-10.3,0.7-15.4,3.8C155.5,114.8,147.7,114.6,143,111.2z"/>
		</g>
		<g>
			<path class="st0" d="M134.1,148.8c-1.1,0-2.4,0-3-0.1c-0.3,0-0.5-0.1-0.7-0.3c-0.3-0.3-1-1.2-1.4-2.1c-0.3-0.6-0.7-1.5-1.2-2.4
				c-0.4,0.8-0.9,1.6-1.2,2.2c-0.5,0.9-1.2,2-1.5,2.3c-0.2,0.2-0.5,0.3-0.7,0.3c-0.6,0-1.8,0-3-0.1c-1.6-0.1-1-1.1-1-1.1
				s2.6-4.5,4.9-8.6c-1.4-2.8-3.6-7.6-3.7-8.4c-0.3-1.2,4.1-1,4.6-0.2c0.4,0.9,1.2,3.3,1.9,4.6c0.8-1.4,1.6-3.7,2.1-4.6
				c0.4-0.6,1.5-0.6,2.5-0.5c1.6,0.1,2.2,0.4,1.7,1.6c-0.2,0.6-2.5,4.9-3.9,7.4c2.2,4.4,4.6,9,4.6,9S135.7,148.8,134.1,148.8z"/>
			<path class="st0" d="M150.3,139.9c-0.2,6.2-3,9.2-7,9.2c-4.4,0-6.4-3.4-6.7-8.7c-0.2-3.8,0.8-10.8,6.6-10.7
				C147.8,129.6,150.5,133.6,150.3,139.9z M143.4,134.4c-1.4,0-2.2,2.4-2.2,4.5c-0.1,4.8,1.1,5,1.5,5.2c0.5,0.2,2.9,0.9,3.2-4.4
				C146.1,135.3,145,134.3,143.4,134.4z"/>
			<path class="st0" d="M165.1,149.5c-1.1,0-2.4,0-3-0.1c-0.3,0-0.5-0.1-0.7-0.3c-0.3-0.3-1-1.2-1.4-2.1c-0.3-0.6-0.7-1.5-1.2-2.4
				c-0.4,0.8-0.9,1.6-1.2,2.2c-0.5,0.9-1.2,2-1.5,2.3c-0.2,0.2-0.5,0.3-0.7,0.3c-0.6,0-1.8,0-3-0.1c-1.6-0.1-1-1.1-1-1.1
				s2.6-4.5,4.9-8.6c-1.4-2.8-3.6-7.6-3.7-8.4c-0.3-1.2,4.1-1,4.6-0.2c0.4,0.9,1.2,3.3,1.9,4.6c0.8-1.4,1.6-3.7,2.1-4.6
				c0.4-0.6,1.5-0.6,2.5-0.5c1.6,0.1,2.2,0.4,1.7,1.6c-0.2,0.6-2.5,4.9-3.9,7.4c2.2,4.4,4.6,9,4.6,9S166.7,149.5,165.1,149.5z"/>
			<path class="st0" d="M181.3,140.6c-0.2,6.2-3,9.2-7,9.2c-4.4,0-6.4-3.4-6.7-8.7c-0.2-3.8,0.8-10.8,6.6-10.7
				C178.7,130.3,181.5,134.2,181.3,140.6z M174.4,135c-1.4,0-2.2,2.4-2.2,4.5c-0.1,4.8,1.1,5,1.5,5.2c0.5,0.2,2.9,0.9,3.2-4.4
				C177.1,136,175.9,135,174.4,135z"/>
		</g>
	</g>
	<g>
		<path class="st0" d="M102.1,181.9c-9.6-7.8-22.6-7-33.1,2.1c-3,2.6-8.9,3.4-12.4,1.6c-12.4-6.1-25.2-3.6-32.5,6.5
			c-1.5,2-2.6,4.2-3.5,6.6c-0.1,0.1-0.1,0.1-0.2,0.2c-5.3,7.4-7.4,17.1-5.9,27.3c1.7,11.5,7.8,22.9,17.6,32.9
			c1.6,1.7,7.5,7.5,15.7,12.2c8.2,4.8,15.8,6.7,22.4,5.9c14.5-1.9,27-18,32.1-27.3c6.3-11.4,9.6-22.5,9.8-32.4
			c0.9-4.5,1.1-8.9,0.8-13.1C112.2,195,108.3,187,102.1,181.9z"/>
		<g>
			<path class="st1" d="M99.4,245.9c-1.8,2.5-4.1,5.2-6.7,7.9c-6.5,6.6-13,10.3-19.4,11.1c0,0,0,0,0,0c-6.4,0.8-13.7-1.1-21.6-5.8
				c-7.8-4.6-13.5-10.3-15.1-11.9c-9.4-9.6-15.4-20.2-17.2-30.6c-0.2-1-0.3-2-0.4-3.1c-2.7,14.8,5.5,31.3,16.4,42.4
				c1.5,1.6,7.1,7,14.7,11.4c7.2,4.2,14,6,19.6,5.3c5.6-0.7,11.6-4.2,17.5-10.2c6.3-6.3,10.2-12.9,11.2-14.8
				C98.8,247.1,99.1,246.5,99.4,245.9z"/>
			<path class="st1" d="M54.6,189.7c-4.8-2.3-9.6-3.3-14-2.7c-0.6,0.1-1.1,0.2-1.6,0.3c-4.5,1-8.4,3.6-11.2,7.5
				c-4,5.5-5.4,13-4,21.2c1.7,9.5,7.3,19.3,16,28.3c1.5,1.5,6.8,6.8,14.2,11.1c7,4.1,13.4,5.9,18.7,5.2c5.3-0.7,11.1-4.1,16.8-9.9
				c6-6.1,9.8-12.6,10.8-14.4c6.2-11,9-21.9,8.2-31.5c-0.7-8.2-4-15.1-9.3-19.4c-3.7-3-8.1-4.5-12.8-4.3c-5,0.2-10,2.4-14.5,6.3
				C67.6,191.2,59.8,192.2,54.6,189.7z"/>
		</g>
		<g>
			<path class="st0" d="M59.4,215c-1.9,2.1-6.1,3-8.5,0.9c-2.3-2.1-2.6-4.3-2.9-7.4c-0.8-7.5-1.1-7.6-0.2-7.8l2.8-0.3
				c0,0,0.7-0.1,0.8,0.8c0.1,1,0.8,6.7,1.1,9c0.1,0.7,0.4,2.4,1.9,2.3c1.6-0.1,2-0.9,1.9-3.5c-0.1-2.8-0.5-8-0.5-8s-0.2-1.1,0.8-1.2
				c0.6-0.1,1.2-0.2,2-0.2c0.6-0.1,1.2,0,1.4,1.8C60.4,203.4,61.7,212.4,59.4,215z"/>
			<path class="st0" d="M83.1,213.1c-0.6,0.6-1.5,1.5-1.5,1.5s-0.7,0.5-1.7-0.4c-0.8-0.8-2.8-2.7-4.1-4.7c0.1,1.1,0.2,2.9,0.3,3.9
				c0,0.3,0.3,1.4-0.8,1.6c-1.1,0.2-3.2,0.5-3.4-0.8c0,0-1.1-10.4-1.3-14c0-0.8-0.1-1.7,1.2-1.9c1.3-0.2,7.6-2.1,9.5,3
				c1.1,2.9-0.6,5-1.8,5.9c-0.1,0.1-0.2,0.2-0.3,0.2c0.6,0.7,1.3,1.6,1.8,2.2c0.8,0.9,1.9,2,2.1,2.2C83.5,212,83.7,212.5,83.1,213.1
				z M77.9,202.6c-0.3-1.7-2.9-0.9-2.9-0.9l0.3,3.1C76.2,204.7,78.2,204.1,77.9,202.6z"/>
			<path class="st0" d="M57.3,240.1c0,0-1.1,0.2-2.3,0.2c-1.1,0.1-1-0.7-1.1-1.1c-0.3-1.2-0.7-3.7-1-5.6l-1,6
				c-0.1,0.5-0.5,0.9-1.1,1l-1.6,0.2c-0.6,0.1-1.1-0.3-1.4-0.8l-2.3-5.6c0.1,1.8,0.2,4.3,0.2,5.5c0,0.4,0.3,1.1-0.9,1.3
				c-1.1,0.2-2.3,0.2-2.3,0.2s-1,0.3-1-1.4c-0.1-1.9-0.7-10.6-0.7-13.8c0-0.3-0.1-1.7,0.8-1.8l2.5-0.2c0,0,0.6-0.1,0.9,0.4l0,0l0,0
				c0,0,0,0,0,0l4.2,9.5l1.8-9.5c0.3-1.4,1-1.3,1-1.3l2.6-0.3c0.7-0.1,1,0.9,1,1.2c0.7,3.1,1.9,12.3,2.1,14.1
				C58.2,240.2,57.3,240.1,57.3,240.1z"/>
			<path class="st0" d="M64.9,239.4c-1.2,0.2-2.5,0.3-2.5,0.3s-0.9,0.3-1.1-1.4c-0.2-1.7-1.2-11-1.5-14c0-0.3-0.3-1.3,0.9-1.4
				l2.6-0.3c0,0,0.9-0.2,1,0.8c0.1,1,1.5,14.7,1.5,14.7S66.2,239.2,64.9,239.4z"/>
			<path class="st0" d="M80.9,221.9c0.1,1.2,1,10.3,1.4,13.4c0.2,1.8-0.8,2.3-2.6,2.5c-0.8,0.1-1.6,0.4-2.6-0.9
				c-1.3-1.6-4.1-6.7-4.1-6.7l0.8,6.7c0,0,0.4,1.5-0.9,1.6c-1.3,0.1-3.1,0.8-3.3-1c-0.2-1.7-0.6-4.9-0.6-4.9l-1-9.9
				c0,0,0-0.7,0.8-0.8c0.8-0.2,1.1-0.1,2-0.2c0.7-0.1,1.1-0.3,2.3,1.8c1.1,1.9,4.3,7.5,4.3,7.5s-0.7-6.6-0.9-8.8
				c0-0.3-0.2-1,0.7-1.2c0.9-0.1,2.3-0.3,2.8-0.3C80.3,220.7,80.8,220.7,80.9,221.9z"/>
			<path class="st0" d="M95,235.2c0,0.6,0.1,1-1.7,1.2c-1.8,0.2-6.2,0.6-6.2,0.6s-1.2,0.2-1.2-1.2c-0.1-1.4-1.4-14-1.4-14
				s-0.4-1.3,0.8-1.6c1.2-0.3,7.2-0.9,7.2-0.9s0.9-0.1,1,0.9c0.1,1.1,0.2,2.2,0.2,2.2s0.2,0.9-1.4,1.1c-1.6,0.3-3.6,0.4-3.6,0.4
				l0.2,2.1l3.4-0.3c0,0,1.1-0.3,1.3,1s0.1,2.1,0.1,2.1s0,0.8-1.4,1c-1.4,0.1-2.9,0.3-2.9,0.3l0.2,2.2l3.7-0.3c0,0,1.4-0.3,1.6,1.2
				C95,234.6,95,234.7,95,235.2z"/>
		</g>
	</g>
	<g>
		<path class="st0" d="M173.8,224c1,4.1,2.7,8.2,5,12.1c3.4,9.3,10.2,18.7,19.8,27.4c7.8,7.1,24.8,18.3,39.2,15.4
			c6.5-1.3,13-5.6,19.3-12.8c6.2-7.1,9.9-14.5,10.9-16.6c6.1-12.7,8.2-25.4,6-36.8c-1.9-10.1-7.1-18.6-14.5-23.9
			c-0.1-0.1-0.2-0.1-0.2-0.2c-1.6-2-3.4-3.7-5.5-5.1c-10.2-7.1-23-5.4-32.8,4.4c-2.8,2.8-8.6,4-12.3,2.5c-12.8-5.2-25.4-1.8-32,8.7
			C172.6,206,171.5,214.8,173.8,224z"/>
		<g>
			<path class="st1" d="M200.1,258.8c2.5,1.7,5.5,3.6,8.9,5.3c8.2,4.1,15.6,5.5,21.9,4.3c0,0,0,0,0,0c6.3-1.3,12.6-5.5,18.6-12.5
				c5.9-6.9,9.5-14.1,10.4-16.1c5.8-12.2,8-24.1,6.4-34.6c-0.2-1-0.4-2-0.6-3c7.4,13.2,5,31.4-1.8,45.4c-0.9,2-4.4,8.9-10.2,15.6
				c-5.5,6.3-11.3,10.3-16.8,11.4c-5.5,1.1-12.4-0.2-19.9-3.9c-8-3.9-13.8-8.9-15.4-10.4C201.1,259.8,200.6,259.3,200.1,258.8z"/>
			<path class="st1" d="M224.2,191.1c3.7-3.8,8-6.2,12.4-7.1c0.5-0.1,1.1-0.2,1.7-0.3c4.6-0.5,9.1,0.7,13,3.4
				c5.6,3.9,9.4,10.6,10.6,18.7c1.5,9.6-0.6,20.6-6,32c-0.9,1.9-4.2,8.7-9.8,15.1c-5.3,6.1-10.8,9.9-16.1,11
				c-5.2,1.1-11.8-0.3-19.1-3.9c-7.6-3.8-13.3-8.7-14.9-10.1c-9.4-8.4-15.6-17.8-18-27.1c-2-8-1.1-15.6,2.5-21.4
				c2.5-4.1,6.2-6.9,10.7-8.2c4.8-1.4,10.2-1,15.8,1.3C212.5,196.8,220.2,195.2,224.2,191.1z"/>
		</g>
		<g>
			<path class="st0" d="M212.2,210.1c0,0.4-0.2,0.6-0.5,0.8c-0.3,0.2-1.2,0.4-2.6,0.7c1,4.3,2.4,10.8,2.4,10.8s0.4,1.1-0.7,1.4
				c-1.1,0.3-2.6,0.6-2.6,0.6s-0.8,0.3-1.2-1.3c-0.3-1.2-1.5-6.6-2.4-10.5c-1.3,0.3-2.3,0.4-2.6,0.5c-0.3,0-0.6-0.1-0.7-0.5
				c-0.5-1.5-0.5-2.6-0.7-3.2c-0.1-0.3,0.1-0.6,0.4-0.7c0.6-0.2,2.7-0.7,4.9-1.2c2.1-0.5,4.3-0.9,4.9-0.9c0.4,0,0.7,0.2,0.8,0.5
				C212,208.3,212.2,209.5,212.2,210.1z"/>
			<path class="st0" d="M228.3,219.8c-1,0.3-2.1,0.5-2.6,0.6c-0.2,0-0.5,0-0.7-0.1c-0.3-0.2-1.1-0.8-1.7-1.5c-0.4-0.5-1-1.2-1.6-1.9
				c-0.2,0.8-0.4,1.6-0.6,2.2c-0.2,0.8-0.6,2-0.8,2.3c-0.1,0.2-0.3,0.4-0.6,0.4c-0.5,0.1-1.6,0.4-2.6,0.6c-1.4,0.3-1.1-0.7-1.1-0.7
				s1.2-4.5,2.4-8.6c-1.8-2.1-4.8-5.8-5.1-6.5c-0.5-1,3.4-1.8,3.9-1.2c0.6,0.7,1.8,2.6,2.7,3.6c0.4-1.4,0.6-3.6,0.8-4.4
				c0.2-0.6,1.1-0.8,2.1-1c1.5-0.2,2-0.1,1.9,1c-0.1,0.6-1.1,4.8-1.8,7.3c2.8,3.3,5.9,6.8,5.9,6.8S229.6,219.4,228.3,219.8z"/>
			<path class="st0" d="M238.4,204.2c0,0.4-0.2,0.6-0.5,0.8c-0.3,0.2-1.2,0.4-2.6,0.7c1,4.3,2.4,10.8,2.4,10.8s0.4,1.1-0.7,1.4
				c-1.1,0.3-2.6,0.6-2.6,0.6s-0.8,0.3-1.2-1.3c-0.3-1.2-1.5-6.6-2.4-10.5c-1.3,0.3-2.3,0.4-2.6,0.5c-0.3,0-0.6-0.1-0.7-0.5
				c-0.5-1.5-0.5-2.6-0.7-3.2c-0.1-0.3,0.1-0.6,0.4-0.7c0.6-0.2,2.7-0.7,4.9-1.2c2.1-0.5,4.3-0.9,4.9-0.9c0.4,0,0.7,0.2,0.8,0.5
				C238.3,202.4,238.4,203.6,238.4,204.2z"/>
			<path class="st0" d="M228.9,243.5c0,0-1.1,0.3-2.2,0.5c-1.1,0.2-1.1-0.6-1.2-0.9c-0.4-1.2-1.1-3.6-1.6-5.4l-0.3,6.1
				c0,0.5-0.4,1-0.9,1.1l-1.6,0.4c-0.6,0.1-1.2-0.1-1.5-0.6l-3-5.2c0.3,1.8,0.7,4.2,0.9,5.5c0.1,0.4,0.4,1.1-0.7,1.4
				c-1.1,0.3-2.2,0.5-2.2,0.5s-0.9,0.4-1.2-1.3c-0.3-1.9-2-10.5-2.3-13.6c0-0.3-0.3-1.7,0.6-1.9l2.5-0.5c0,0,0.6-0.2,0.9,0.3l0,0
				l0,0c0,0,0,0,0,0l5.3,9l0.7-9.7c0.1-1.4,0.8-1.4,0.8-1.4l2.6-0.6c0.7-0.2,1.1,0.7,1.2,1.1c1.1,3,3.3,12,3.8,13.7
				C229.9,243.5,228.9,243.5,228.9,243.5z"/>
			<path class="st0" d="M241.7,239.6c0,0.6,0.2,1-1.5,1.4c-1.7,0.4-6.1,1.3-6.1,1.3s-1.1,0.4-1.4-1c-0.3-1.4-3.1-13.7-3.1-13.7
				s-0.5-1.2,0.6-1.7c1.2-0.5,7.1-1.7,7.1-1.7s0.9-0.2,1.1,0.8c0.2,1.1,0.5,2.2,0.5,2.2s0.2,0.8-1.3,1.3s-3.5,0.8-3.5,0.8l0.5,2.1
				l3.4-0.7c0,0,1-0.4,1.4,0.9c0.4,1.3,0.3,2.1,0.3,2.1s0.1,0.8-1.3,1.1c-1.4,0.3-2.8,0.6-2.8,0.6l0.5,2.2l3.6-0.7
				c0,0,1.4-0.5,1.7,1C241.6,239,241.7,239.1,241.7,239.6z"/>
		</g>
	</g>
	<g>
		<path class="st0" d="M16.5,52.5c-0.8,4.1-1.1,8.5-0.7,13.1c-0.9,9.8,1.1,21.3,6.1,33.3c4,9.7,14.5,27.2,28.8,30.8
			c6.5,1.6,14.2,0.5,22.9-3.3c8.6-3.7,15.2-8.8,17-10.3c11-8.8,18.3-19.4,21.3-30.6c2.6-10,1.6-19.9-2.8-27.8c0-0.1-0.1-0.2-0.1-0.2
			c-0.6-2.5-1.5-4.8-2.7-7c-6.1-10.8-18.5-14.8-31.5-10.1c-3.7,1.3-9.5-0.1-12.1-3C53.2,27,40.4,24.7,29.9,31.4
			C23.1,35.7,18.4,43.2,16.5,52.5z"/>
		<g>
			<path class="st1" d="M25.2,95.3c1.5,2.7,3.4,5.7,5.8,8.6c5.7,7.3,11.7,11.7,18,13.3c0,0,0,0,0,0c6.3,1.6,13.7,0.5,22.1-3.3
				c8.3-3.7,14.6-8.6,16.4-10.1c10.4-8.5,17.6-18.4,20.6-28.5c0.3-1,0.6-2,0.8-3c1,15.1-9,30.5-21.1,40.2c-1.7,1.4-7.8,6.2-15.9,9.7
				c-7.7,3.3-14.6,4.4-20,3c-5.4-1.4-11.1-5.5-16.3-12.1c-5.6-7-8.6-14-9.5-16C25.8,96.6,25.5,95.9,25.2,95.3z"/>
			<path class="st1" d="M76.2,44.5c5-1.8,9.9-2.1,14.2-1.1c0.5,0.1,1.1,0.3,1.6,0.5c4.4,1.5,8,4.5,10.3,8.7c3.4,6,3.9,13.6,1.5,21.5
				c-2.8,9.3-9.4,18.4-19.2,26.3c-1.6,1.4-7.6,6-15.3,9.4c-7.4,3.3-14,4.3-19.2,3c-5.2-1.3-10.6-5.3-15.5-11.7
				c-5.2-6.7-8.3-13.6-9.1-15.5C20.6,74,19,62.9,20.9,53.4c1.6-8.1,5.7-14.6,11.4-18.2c4-2.6,8.6-3.6,13.2-2.8
				c4.9,0.8,9.7,3.5,13.7,8C63.1,44.6,70.7,46.5,76.2,44.5z"/>
		</g>
		<g>
			<path class="st0" d="M49.5,58.7c-1.3,5.4-4.3,7.5-7.8,6.8c-3.9-0.8-5-4.2-4.4-8.8c0.5-3.4,2.6-9.4,7.8-8.2
				C49.1,49.2,50.8,53.2,49.5,58.7z M44.4,52.6c-1.3-0.2-2.4,1.7-2.8,3.6c-0.9,4.2,0,4.6,0.4,4.9c0.4,0.2,2.4,1.3,3.6-3.3
				C46.6,53.9,45.8,52.9,44.4,52.6z"/>
			<path class="st0" d="M66.7,55.1c-0.3,1.2-2.3,10.1-3,13.1c-0.4,1.7-1.5,1.9-3.2,1.5c-0.8-0.2-1.6-0.1-2.2-1.7
				c-0.7-1.9-1.8-7.7-1.8-7.7L55.1,67c0,0-0.2,1.6-1.4,1.3c-1.2-0.3-3.2-0.3-2.8-2c0.4-1.7,1-4.9,1-4.9l2.3-9.7c0,0,0.2-0.6,1-0.6
				c0.8,0.1,1.1,0.2,2,0.5c0.7,0.2,1.1,0,1.6,2.4c0.4,2.2,1.7,8.5,1.7,8.5s1.4-6.5,1.9-8.6c0.1-0.3,0.2-1,1-0.9
				c0.9,0.1,2.2,0.4,2.8,0.6C66.5,53.8,67,53.9,66.7,55.1z"/>
			<path class="st0" d="M74.2,72.9c-1.7-0.4-6.6-1.4-6.6-1.4s-1.1-0.1-0.8-1.4c0.3-1.3,1.5-6.1,1.5-6.1l2-8.7c0,0,0-0.7,0.9-0.5
				c0.9,0.2,3,0.7,3,0.7s0.9,0.1,0.5,1.3C74.5,58,72.2,68,72.2,68s2.8,0.6,3.3,0.8c0.5,0.2,0.9,0.3,0.8,1c-0.2,0.7-0.5,2.2-0.5,2.2
				S75.7,73.3,74.2,72.9z"/>
			<path class="st0" d="M90.3,60.3c-0.8,1-5.6,7.1-5.6,7.1s-1.5,6.1-1.6,6.3c-0.1,0.5-0.4,0.9-1.2,0.9c-0.8-0.1-2.1-0.2-2.7-0.6
				c-0.4-0.2-0.5-0.5-0.2-1.8c0.3-1.9,1.2-5.9,1.2-5.9l-2-8.8c0,0-0.2-1,0.7-0.9s2.4,0.4,3.1,0.7c0.3,0.1,0.5,0.2,0.6,1.1
				c0.1,0.7,0.7,4,0.7,4l2.7-3.5c0,0,0.3-0.6,1.1-0.4l2.5,0.6C89.8,59,91.1,59.4,90.3,60.3z"/>
			<path class="st0" d="M50.7,75.1c-0.8,1-5.6,7.1-5.6,7.1s-1.5,6.1-1.6,6.3c-0.1,0.5-0.4,0.9-1.2,0.9c-0.8-0.1-2.1-0.2-2.7-0.6
				c-0.4-0.2-0.5-0.5-0.2-1.8c0.3-1.9,1.2-5.9,1.2-5.9l-2-8.8c0,0-0.2-1,0.7-0.9c0.9,0.1,2.4,0.4,3.1,0.7c0.3,0.1,0.5,0.2,0.6,1.1
				c0.1,0.7,0.7,4,0.7,4l2.7-3.5c0,0,0.3-0.6,1.1-0.4l2.5,0.6C50.2,73.8,51.5,74.1,50.7,75.1z"/>
			<path class="st0" d="M62.1,85.4c-1.3,5.4-4.3,7.5-7.8,6.8c-3.9-0.8-5-4.2-4.4-8.8c0.5-3.4,2.6-9.4,7.8-8.2
				C61.7,75.9,63.4,79.9,62.1,85.4z M57,79.3c-1.3-0.2-2.4,1.7-2.8,3.6c-0.9,4.2,0,4.6,0.4,4.9c0.4,0.2,2.4,1.3,3.6-3.3
				C59.2,80.6,58.4,79.5,57,79.3z"/>
			<path class="st0" d="M73.6,95c-2.5,1.4-6.8,0.8-8.3-1.9c-1.6-2.7-1-4.9-0.4-8c1.6-7.4,1.4-7.6,2.3-7.4l2.8,0.6
				c0,0,0.7,0.1,0.5,1.1c-0.2,1-1.4,6.6-1.8,8.9c-0.1,0.7-0.4,2.3,1.1,2.8c1.5,0.4,2.2-0.2,3-2.7c0.8-2.7,2.1-7.7,2.1-7.7
				s0.2-1.1,1.1-0.9c0.6,0.1,1.2,0.2,2,0.4c0.6,0.2,1.1,0.4,0.8,2.1C78.2,84.4,76.6,93.3,73.6,95z"/>
		</g>
	</g>
</g>
</svg>
